<!-- icon666.com - MILLIONS vector ICONS FREE --><svg fill="none" viewBox="0 0 24 24" xmlns="http://www.w3.org/2000/svg" xmlns:xlink="http://www.w3.org/1999/xlink"><linearGradient id="lg1"><stop offset="0" stop-color="#1480f0"></stop><stop offset="1" stop-color="#875be3"></stop></linearGradient><linearGradient id="paint0_linear_607_10879" gradientUnits="userSpaceOnUse" x1="12" x2="12" xlink:href="#lg1" y1="4" y2="20"></linearGradient><linearGradient id="paint1_linear_607_10879" gradientUnits="userSpaceOnUse" x1="12" x2="12" xlink:href="#lg1" y1="3" y2="21"></linearGradient><g clip-rule="evenodd" fill-rule="evenodd"><path d="m11.9999 6c-.393 0-.778.02263-1.1539.06646-.5486.06395-1.04515-.32891-1.1091-.87748-.06396-.54856.3289-1.04511.8775-1.10906.4533-.05286.9156-.07992 1.3855-.07992 5.1161 0 9.1967 3.1941 10.9315 7.6362.0914.2339.0914.4937 0 .7276-.4275 1.0947-.9968 2.1135-1.6898 3.0279-.3336.4401-.9608.5265-1.401.1929-.4401-.3336-.5265-.9608-.1929-1.401.4605-.6076.858-1.2734 1.1833-1.986.0573-.1255.0572-.2699-.0001-.3955-1.5738-3.44892-4.8326-5.8021-8.831-5.8021zm-4.62667-.00138c.28764.47147.13861 1.08685-.33286 1.37449-1.67697 1.0231-3.02063 2.56542-3.87145 4.42929-.05731.1255-.05723.2699.00006.3955 1.57384 3.4489 4.83262 5.8021 8.83092 5.8021 1.8519 0 3.5324-.5024 4.9598-1.3732.4715-.2877 1.0869-.1387 1.3745.3328.2877.4714.1386 1.0868-.3328 1.3745-1.7379 1.0603-3.7782 1.6659-6.0015 1.6659-5.11606 0-9.19667-3.1941-10.93145-7.6362-.091349-.2339-.091349-.4937 0-.7276.97604-2.49925 2.69273-4.60533 4.9303-5.97044.47147-.28763 1.08685-.13861 1.37448.33286zm3.21257 3.17289c.3906.39054.3905 1.02369 0 1.41419-.3631.3631-.58586.8617-.58586 1.4143 0 1.1046.89546 2 1.99996 2 .5526 0 1.0513-.2228 1.4143-.5858.3905-.3906 1.0237-.3906 1.4142-.0001.3906.3905.3906 1.0237.0001 1.4142-.7228.7228-1.7242 1.1717-2.8286 1.1717-2.2091 0-3.99996-1.7909-3.99996-4 0-1.1044.44886-2.10578 1.1717-2.82855.39054-.39051 1.02366-.39048 1.41416.00006z" fill="url(#paint0_linear_607_10879)"></path><path d="m3.29289 3.29289c.39053-.39052 1.02369-.39052 1.41422 0l15.99999 16.00001c.3905.3905.3905 1.0237 0 1.4142s-1.0237.3905-1.4142 0l-16.00001-15.99999c-.39052-.39053-.39052-1.02369 0-1.41422z" fill="url(#paint1_linear_607_10879)"></path></g></svg>