<svg width="128" height="128" viewBox="0 0 128 128" fill="none" xmlns="http://www.w3.org/2000/svg">
<rect x="17.5" y="17.5" width="93" height="93" rx="46.5" stroke="#D1E6FF" stroke-width="3"/>
<path d="M52 82V78C52 75.8783 52.8429 73.8434 54.3431 72.3431C55.8434 70.8429 57.8783 70 60 70H68C70.1217 70 72.1566 70.8429 73.6569 72.3431C75.1571 73.8434 76 75.8783 76 78V82M72 54C72 58.4183 68.4183 62 64 62C59.5817 62 56 58.4183 56 54C56 49.5817 59.5817 46 64 46C68.4183 46 72 49.5817 72 54Z" stroke="#1B85F3" stroke-width="3" stroke-linecap="round" stroke-linejoin="round"/>
</svg>
