<!-- icon666.com - MILLIONS vector ICONS FREE --><svg fill="none" viewBox="0 0 24 24" xmlns="http://www.w3.org/2000/svg" xmlns:xlink="http://www.w3.org/1999/xlink"><linearGradient id="paint0_linear_607_10878" gradientUnits="userSpaceOnUse" x1="12" x2="12" y1="4" y2="20"><stop offset="0" stop-color="#1480f0"></stop><stop offset="1" stop-color="#875be3"></stop></linearGradient><path clip-rule="evenodd" d="m3.16901 11.8022c-.05728.1255-.05728.2701 0 .3956 1.57383 3.449 4.83263 5.8022 8.83099 5.8022 3.9984 0 7.2572-2.3532 8.831-5.8022.0573-.1255.0573-.2701 0-.3956-1.5738-3.44899-4.8326-5.8022-8.831-5.8022-3.99836 0-7.25716 2.35321-8.83099 5.8022zm-2.1005-.166c1.73478-4.4421 5.81539-7.6362 10.93149-7.6362s9.1967 3.1941 10.9315 7.6362c.0913.2339.0913.4937 0 .7276-1.7348 4.4421-5.8154 7.6362-10.9315 7.6362s-9.19671-3.1941-10.93149-7.6362c-.091347-.2339-.091347-.4937 0-.7276zm10.93149-1.6362c-1.1046 0-2 .8954-2 2s.8954 2 2 2 2-.8954 2-2-.8954-2-2-2zm-4 2c0-2.20914 1.79086-4 4-4 2.2091 0 4 1.79086 4 4 0 2.2091-1.7909 4-4 4-2.20914 0-4-1.7909-4-4z" fill="url(#paint0_linear_607_10878)" fill-rule="evenodd"></path></svg>